<svg width="620" height="114" viewBox="0 0 620 114" fill="none" xmlns="http://www.w3.org/2000/svg">
<path d="M70.0523 40.9703C69.5283 36.9748 68.1856 33.3723 66.0241 30.1628C62.8801 25.8398 58.0003 23.6783 51.3848 23.6783C41.9528 23.6783 35.501 28.3615 32.0295 37.728C30.1955 42.706 29.2785 49.3215 29.2785 57.5745C29.2785 65.4346 30.1955 71.7553 32.0295 76.5368C35.37 85.4448 41.658 89.8988 50.8935 89.8988C57.4436 89.8988 62.0941 88.1303 64.8451 84.5933C67.5961 81.0563 69.2663 76.4713 69.8558 70.8383H98.4466C97.7916 79.3533 94.7131 87.4098 89.2111 95.0078C80.4341 107.256 67.4323 113.381 50.2058 113.381C32.9793 113.381 20.305 108.272 12.183 98.0536C4.061 87.8356 0 74.5718 0 58.2623C0 39.8568 4.48675 25.545 13.4603 15.327C22.4338 5.10901 34.8133 0 50.5988 0C64.0263 0 74.9976 3.013 83.5126 9.03901C92.0931 15.065 97.1693 25.7088 98.7413 40.9703H70.0523Z" fill="white"/>
<path d="M226.424 11.1779C226.424 8.23465 225.384 5.41208 223.294 3.33091C221.205 1.24975 218.372 0.0804306 215.417 0.0801362L173.047 -2.30854e-06L173.047 0.514591L173.047 0.86408L173.047 2.16916L173.047 3.2745L173.047 5.18103L173.047 6.99093L173.047 11.3861L173.047 15.5581L173.047 19.1779L173.047 21.4763L173.047 22.3608L204.063 22.2756L204.063 55.5411L205.243 55.5411L207.483 55.5411L211.117 55.5411L215.417 55.5411L219.717 55.5411L223.351 55.5411L225.755 55.5411L226.424 55.5411L226.424 11.1779Z" fill="white"/>
<path d="M215.246 110C218.189 110 221.012 108.96 223.093 106.871C225.174 104.781 226.343 101.948 226.344 98.9934L226.424 55L226.006 55L225.56 55L224.496 55L223.69 55L221.88 55L220.071 55L216.183 55L211.275 55L207.655 55L205.093 55L204.063 55L204.148 87.6393L170.883 87.6393L170.883 88.8195L170.883 91.0596L170.883 94.6933L170.883 98.9934L170.883 103.293L170.883 106.927L170.883 109.331L170.883 110L215.246 110Z" fill="white"/>
<path d="M116.424 98.8206C116.424 101.764 117.464 104.586 119.553 106.668C121.642 108.749 124.476 109.918 127.43 109.918L171.424 110L171.424 109.725L171.424 109.134L171.424 107.926L171.424 106.724L171.424 104.914L171.424 103.104L171.424 98.8206L171.424 94.537L171.424 90.8398L171.465 88.6434L171.424 87.6377L138.784 87.7229L138.784 55.5407L137.604 55.5407L135.572 55.5407L132.09 55.5407L128.053 55.5407L123.49 55.5407L119.497 55.5407L117.189 55.5407L116.424 55.5407L116.424 98.8206Z" fill="white"/>
<path d="M127.601 0.00390625C124.658 0.00420166 121.836 1.04419 119.755 3.13336C117.673 5.22253 116.504 8.05597 116.504 11.0105L116.424 53.3824L116.939 53.3824L117.385 53.3824L118.496 53.3824L119.796 53.3824L121.508 53.3824L123.607 53.3824L127.891 53.3824L131.885 53.3824L135.94 53.381L138.077 53.3824L138.784 53.3824L138.699 22.3646L170.883 22.3646L170.883 21.2811L170.883 18.9443L170.883 15.3106L170.883 10.9138L170.883 6.71045L170.883 3.07673L170.883 0.672415L170.883 0.00531507L127.601 0.00390625Z" fill="#FFCE18"/>
<path d="M302.566 0C303.09 0 303.516 0.0327467 303.843 0.0982467C304.236 0.0982467 305.055 0.130999 306.3 0.196499V28.8855C304.531 28.689 302.959 28.558 301.584 28.4925C300.208 28.427 299.095 28.3943 298.243 28.3943C286.977 28.3943 279.412 32.0623 275.547 39.3983C273.386 43.5248 272.305 49.8783 272.305 58.4588V109.647H244.107V2.5545H270.831V21.222C275.154 14.0825 278.921 9.20275 282.13 6.58275C287.37 2.19425 294.182 0 302.566 0Z" fill="white"/>
<path d="M383.129 0C394.198 0 403.237 2.91475 410.246 8.74426C417.32 14.5083 420.857 24.104 420.857 37.5315V109.647H392.168V44.5073C392.168 38.8743 391.415 34.5513 389.908 31.5383C387.157 26.0363 381.917 23.2853 374.188 23.2853C364.691 23.2853 358.173 27.3135 354.636 35.37C352.802 39.6275 351.885 45.064 351.885 51.6795V109.647H323.982V2.751H351.001V18.3728C354.604 12.8708 358.01 8.90801 361.219 6.48451C366.983 2.1615 374.286 0 383.129 0Z" fill="white"/>
<path d="M489.236 23.0888C482.752 23.0888 477.708 25.1193 474.106 29.1803C470.569 33.2413 468.342 38.7433 467.425 45.6863H510.949C510.491 38.2848 508.231 32.6845 504.17 28.8855C500.175 25.021 495.197 23.0888 489.236 23.0888ZM489.236 0C498.144 0 506.168 1.67025 513.307 5.01076C520.447 8.35126 526.342 13.624 530.992 20.829C535.184 27.1825 537.903 34.5513 539.147 42.9353C539.868 47.8478 540.162 54.9218 540.031 64.1573H466.737C467.13 74.8993 470.503 82.4318 476.857 86.7548C480.721 89.4403 485.372 90.7831 490.808 90.7831C496.572 90.7831 501.255 89.1456 504.858 85.8706C506.823 84.1021 508.559 81.6458 510.065 78.5018H538.656C537.935 84.8553 534.628 91.3071 528.733 97.8571C519.563 108.272 506.725 113.479 490.219 113.479C476.595 113.479 464.575 109.09 454.161 100.313C443.746 91.5363 438.539 77.2573 438.539 57.4763C438.539 38.9398 443.222 24.7263 452.589 14.8358C462.021 4.94526 474.237 0 489.236 0Z" fill="white"/>
<path d="M616.205 0C616.729 0 617.155 0.0327467 617.482 0.0982467C617.875 0.0982467 618.694 0.130999 619.938 0.196499V28.8855C618.17 28.689 616.598 28.558 615.222 28.4925C613.847 28.427 612.733 28.3943 611.882 28.3943C600.616 28.3943 593.051 32.0623 589.186 39.3983C587.025 43.5248 585.944 49.8783 585.944 58.4588V109.647H557.746V2.5545H584.47V21.222C588.793 14.0825 592.559 9.20275 595.769 6.58275C601.009 2.19425 607.821 0 616.205 0Z" fill="white"/>
</svg>
