<svg width="110" height="110" viewBox="0 0 110 110" fill="none" xmlns="http://www.w3.org/2000/svg">
<path d="M110 11.1779C110 8.23465 108.96 5.41208 106.871 3.33091C104.781 1.24975 101.948 0.0804306 98.9934 0.0801362L56.623 -2.30854e-06L56.623 0.514591L56.623 0.86408L56.623 2.16916L56.623 3.2745L56.623 5.18103L56.623 6.99093L56.623 11.3861L56.623 15.5581L56.623 19.1779L56.623 21.4763L56.623 22.3608L87.6393 22.2756L87.6393 55.5411L88.8195 55.5411L91.0596 55.5411L94.6933 55.5411L98.9934 55.5411L103.293 55.5411L106.927 55.5411L109.331 55.5411L110 55.5411L110 11.1779Z" fill="black"/>
<path d="M98.8223 110C101.765 110 104.588 108.96 106.669 106.871C108.75 104.781 109.92 101.948 109.92 98.9934L110 55.541L109.582 55.541L109.136 55.541L107.928 55.541L106.726 55.541L104.916 55.541L103.106 55.541L98.8223 55.541L94.5387 55.541L90.9189 55.541L88.5238 55.541L87.6393 55.541L87.7246 87.6393L54.459 87.6393L54.459 88.8195L54.459 91.0596L54.459 94.6933L54.459 98.9934L54.459 103.293L54.459 106.927L54.459 109.331L54.459 110L98.8223 110Z" fill="black"/>
<path d="M1.46766e-06 98.8223C0.00029649 101.765 1.04028 104.588 3.12945 106.669C5.21862 108.75 8.05206 109.92 11.0066 109.92L54.459 110L54.459 109.582L54.459 109.136L54.459 107.928L54.459 106.726L54.459 104.916L54.459 103.106L54.459 98.8223L54.459 94.5387L54.459 90.9189L54.459 88.5238L54.459 87.6393L22.3607 87.7246L22.3607 55.5424L21.1805 55.5424L19.1478 55.5424L15.6659 55.5424L11.6288 55.5424L7.0658 55.5424L3.07283 55.5424L0.764776 55.5424L7.78314e-06 55.5424L1.46766e-06 98.8223Z" fill="black"/>
<path d="M11.1777 0.00390625C8.23445 0.00420166 5.41188 1.04419 3.33072 3.13336C1.24955 5.22253 0.0802331 8.05597 0.0799388 11.0105L8.94486e-09 53.3824L0.515485 53.3824L0.961612 53.3824L2.07233 53.3824L3.37203 53.3824L5.0842 53.3824L7.18363 53.3824L11.4672 53.3824L15.4612 53.3824L19.5166 53.381L21.6528 53.3824L22.3606 53.3824L22.2754 22.3646L54.459 22.3646L54.459 21.2811L54.459 18.9443L54.459 15.3106L54.459 10.9138L54.459 6.71045L54.459 3.07673L54.459 0.672415L54.459 0.00531507L11.1777 0.00390625Z" fill="white"/>
</svg>
