<svg width="2885" height="2812" viewBox="0 0 2885 2812" fill="none" xmlns="http://www.w3.org/2000/svg">
<rect width="2885" height="2812" fill="black"/>
<path d="M765.079 1361.85C763.598 1350.55 759.801 1340.36 753.689 1331.29C744.799 1319.06 731.001 1312.95 712.295 1312.95C685.625 1312.95 667.382 1326.19 657.566 1352.68C652.381 1366.76 649.788 1385.46 649.788 1408.8C649.788 1431.02 652.381 1448.89 657.566 1462.41C667.012 1487.6 684.792 1500.2 710.906 1500.2C729.427 1500.2 742.577 1495.2 750.355 1485.2C758.134 1475.19 762.857 1462.23 764.524 1446.3H845.367C843.515 1470.38 834.81 1493.16 819.252 1514.64C794.435 1549.28 757.671 1566.59 708.961 1566.59C660.252 1566.59 624.414 1552.15 601.449 1523.26C578.483 1494.36 567 1456.86 567 1410.74C567 1358.7 579.687 1318.23 605.06 1289.34C630.434 1260.45 665.438 1246 710.073 1246C748.04 1246 779.062 1254.52 803.139 1271.56C827.402 1288.6 841.755 1318.69 846.2 1361.85H765.079Z" fill="#FFCE18"/>
<path d="M927.215 1246C918.989 1246 911.101 1249.27 905.284 1255.09C899.468 1260.9 896.2 1268.79 896.199 1277.02V1400.06C896.199 1400.58 896.622 1401 897.143 1401H898.39H901.767H905.127H910.185H915.243H927.215H939.186H949.303H955.996H956.23C957.335 1401 958.23 1400.1 958.23 1399V1310.03C958.23 1308.93 959.126 1308.03 960.23 1308.03H1049.2C1050.3 1308.03 1051.2 1307.14 1051.2 1306.03V1305.34V1299.1V1288.99V1277.02V1265.04V1254.93V1248.23V1248C1051.2 1246.9 1050.3 1246 1049.2 1246H927.215Z" fill="white"/>
<path d="M1206.2 1277.02C1206.2 1268.79 1202.93 1260.9 1197.11 1255.09C1191.3 1249.27 1183.41 1246 1175.18 1246L1052.14 1246C1051.62 1246 1051.2 1246.42 1051.2 1246.94L1051.2 1248.19L1051.2 1251.57L1051.2 1254.93L1051.2 1259.99L1051.2 1265.04L1051.2 1277.02L1051.2 1288.99L1051.2 1299.1L1051.2 1305.8L1051.2 1306.03C1051.2 1307.14 1052.09 1308.03 1053.2 1308.03L1142.17 1308.03C1143.27 1308.03 1144.17 1308.93 1144.17 1310.03L1144.17 1399C1144.17 1400.1 1145.06 1401 1146.17 1401L1146.86 1401L1153.1 1401L1163.21 1401L1175.18 1401L1187.16 1401L1197.27 1401L1203.97 1401L1204.2 1401C1205.3 1401 1206.2 1400.1 1206.2 1399L1206.2 1277.02Z" fill="#FFCE18"/>
<path d="M1175.18 1556C1183.41 1556 1191.3 1552.73 1197.11 1546.91C1202.93 1541.1 1206.2 1533.21 1206.2 1524.98L1206.2 1401.94C1206.2 1401.42 1205.78 1401 1205.26 1401L1204.01 1401L1200.63 1401L1197.27 1401L1192.21 1401L1187.16 1401L1175.18 1401L1163.21 1401L1153.1 1401L1146.4 1401L1146.17 1401C1145.06 1401 1144.17 1401.9 1144.17 1403L1144.17 1491.97C1144.17 1493.07 1143.27 1493.97 1142.17 1493.97L1053.2 1493.97C1052.09 1493.97 1051.2 1494.86 1051.2 1495.97L1051.2 1496.66L1051.2 1502.9L1051.2 1513.01L1051.2 1524.98L1051.2 1536.96L1051.2 1547.07L1051.2 1553.77L1051.2 1554C1051.2 1555.1 1052.09 1556 1053.2 1556L1175.18 1556Z" fill="#FFCE18"/>
<path d="M896.199 1524.98C896.2 1533.21 899.468 1541.1 905.284 1546.91C911.101 1552.73 918.989 1556 927.215 1556L1050.26 1556C1050.78 1556 1051.2 1555.58 1051.2 1555.06L1051.2 1553.81L1051.2 1550.43L1051.2 1547.07L1051.2 1542.01L1051.2 1536.96L1051.2 1524.98L1051.2 1513.01L1051.2 1502.9L1051.2 1496.2L1051.2 1495.97C1051.2 1494.86 1050.3 1493.97 1049.2 1493.97L960.23 1493.97C959.126 1493.97 958.23 1493.07 958.23 1491.97L958.23 1403C958.23 1401.9 957.335 1401 956.23 1401L955.539 1401L949.303 1401L939.186 1401L927.215 1401L915.243 1401L905.127 1401L898.433 1401L898.199 1401C897.095 1401 896.199 1401.9 896.199 1403L896.199 1524.98Z" fill="#FFCE18"/>
<line x1="1051.2" y1="1246" x2="1051.2" y2="1310" stroke="black" stroke-width="8"/>
<line x1="896.199" y1="1401" x2="974.199" y2="1401" stroke="black" stroke-width="8"/>
<path d="M1421.5 1246C1422.98 1246 1424.18 1246.09 1425.11 1246.28C1426.22 1246.28 1428.53 1246.37 1432.05 1246.56V1327.68C1427.05 1327.12 1422.61 1326.75 1418.72 1326.57C1414.83 1326.38 1411.68 1326.29 1409.27 1326.29C1377.42 1326.29 1356.03 1336.66 1345.1 1357.4C1338.99 1369.07 1335.93 1387.04 1335.93 1411.3V1556.04H1256.2V1253.22H1331.76V1306.01C1343.99 1285.82 1354.64 1272.02 1363.71 1264.61C1378.53 1252.2 1397.79 1246 1421.5 1246Z" fill="#FFCE18"/>
<path d="M1649.3 1246C1680.6 1246 1706.16 1254.24 1725.97 1270.73C1745.98 1287.02 1755.98 1314.16 1755.98 1352.12V1556.04H1674.86V1371.85C1674.86 1355.92 1672.73 1343.7 1668.47 1335.18C1660.69 1319.62 1645.87 1311.84 1624.02 1311.84C1597.16 1311.84 1578.73 1323.23 1568.73 1346.01C1563.55 1358.05 1560.95 1373.42 1560.95 1392.13V1556.04H1482.05V1253.78H1558.45V1297.95C1568.64 1282.39 1578.27 1271.19 1587.35 1264.34C1603.64 1252.11 1624.29 1246 1649.3 1246Z" fill="#FFCE18"/>
<path d="M1949.33 1311.29C1930.99 1311.29 1916.73 1317.03 1906.54 1328.51C1896.54 1339.99 1890.25 1355.55 1887.65 1375.18H2010.72C2009.43 1354.25 2003.04 1338.42 1991.55 1327.68C1980.26 1316.75 1966.18 1311.29 1949.33 1311.29ZM1949.33 1246C1974.52 1246 1997.2 1250.72 2017.39 1260.17C2037.58 1269.61 2054.25 1284.52 2067.4 1304.9C2079.25 1322.86 2086.94 1343.7 2090.45 1367.4C2092.49 1381.29 2093.33 1401.3 2092.96 1427.41H1885.71C1886.82 1457.78 1896.36 1479.08 1914.32 1491.31C1925.25 1498.9 1938.4 1502.7 1953.77 1502.7C1970.07 1502.7 1983.31 1498.07 1993.5 1488.81C1999.06 1483.81 2003.96 1476.86 2008.22 1467.97H2089.07C2087.03 1485.94 2077.68 1504.18 2061.01 1522.7C2035.08 1552.15 1998.78 1566.87 1952.11 1566.87C1913.58 1566.87 1879.6 1554.46 1850.15 1529.65C1820.7 1504.83 1805.98 1464.45 1805.98 1408.52C1805.98 1356.11 1819.22 1315.92 1845.7 1287.95C1872.37 1259.98 1906.91 1246 1949.33 1246Z" fill="#FFCE18"/>
<path d="M2308.34 1246C2309.82 1246 2311.02 1246.09 2311.95 1246.28C2313.06 1246.28 2315.38 1246.37 2318.9 1246.56V1327.68C2313.89 1327.12 2309.45 1326.75 2305.56 1326.57C2301.67 1326.38 2298.52 1326.29 2296.11 1326.29C2264.26 1326.29 2242.87 1336.66 2231.94 1357.4C2225.83 1369.07 2222.77 1387.04 2222.77 1411.3V1556.04H2143.04V1253.22H2218.61V1306.01C2230.83 1285.82 2241.48 1272.02 2250.55 1264.61C2265.37 1252.2 2284.63 1246 2308.34 1246Z" fill="#FFCE18"/>
</svg>
